<svg width="64" height="64" fill="none" xmlns="http://www.w3.org/2000/svg"><rect width="64" height="64" rx="32" fill="#8F8F98"/><path fill-rule="evenodd" clip-rule="evenodd" d="M32.75 23.25a.75.75 0 1 0-1.5 0v9.836l-3.563-3.57a.75.75 0 1 0-1.062 1.06l4.844 4.853a.745.745 0 0 0 .576.22.748.748 0 0 0 .492-.226l4.838-4.848a.75.75 0 1 0-1.062-1.06l-3.563 3.571V23.25zm-8.5 11.87a.75.75 0 0 1 .75.75v1.942a1.193 1.193 0 0 0 1.188 1.191h11.625c.314 0 .616-.125.84-.348.222-.223.348-.527.348-.843V35.87a.75.75 0 0 1 1.5 0v1.942a2.694 2.694 0 0 1-2.688 2.691H26.188a2.686 2.686 0 0 1-2.688-2.691V35.87a.75.75 0 0 1 .75-.75z" fill="#fff"/></svg>