<svg width="20" height="20" fill="none" xmlns="http://www.w3.org/2000/svg"><defs><clipPath id="a"><path fill="#fff" fill-opacity="0" d="M0 0h20v20H0z"/></clipPath></defs><path fill="none" d="M0 0h20v20H0z"/><g clip-path="url(#a)"><path d="M-.75 20V0c0-.5.25-.75.75-.75h20c.5 0 .75.25.75.75v20c0 .5-.25.75-.75.75H0c-.5 0-.75-.25-.75-.75zM.75.75v18.5h18.5V.75H.75z" fill="#8F8F98" fill-rule="evenodd"/><path d="M8.822 8.822a1.667 1.667 0 0 0 2.357 2.357" stroke="#8F8F98" stroke-width="1.5" stroke-linejoin="round" stroke-linecap="round"/><path d="M13.9 13.894A7.265 7.265 0 0 1 10 15c-3 0-5.5-1.667-7.5-5 1.06-1.767 2.26-3.065 3.6-3.895m2.383-.955A7.546 7.546 0 0 1 10 5c3 0 5.5 1.667 7.5 5a13.806 13.806 0 0 1-1.782 2.392" stroke="#8F8F98" stroke-width="1.5" stroke-linejoin="round"/><path d="m2.5 2.5 15 15" stroke="#8F8F98" stroke-width="1.5" stroke-linejoin="round" stroke-linecap="round"/></g></svg>