<svg width="26.000000" height="26.000000" viewBox="0 0 26 26" fill="none" xmlns="http://www.w3.org/2000/svg" xmlns:xlink="http://www.w3.org/1999/xlink">
	<desc>
			Created with Pixso.
	</desc>
	<defs/>
	<rect id="Social Media Icon" x="1.000000" y="1.000000" rx="4.000000" width="24.000000" height="24.000000" fill="#FFFFFF" fill-opacity="1.000000"/>
	<path id="Facebook" d="M13.9761 18.9999L13.9761 13.5262L15.9058 13.5262L16.1948 11.3929L13.9761 11.3929L13.9761 10.0309C13.9761 9.41333 14.1562 8.99249 15.0864 8.99249L16.2729 8.99194L16.2729 7.08398C16.0679 7.05804 15.3633 6.99994 14.5439 6.99994C12.8335 6.99994 11.6621 7.99408 11.6621 9.81976L11.6621 11.3929L9.72754 11.3929L9.72754 13.5262L11.6621 13.5262L11.6621 18.9999L13.9761 18.9999L13.9761 18.9999Z" fill="#044AB2" fill-opacity="1.000000" fill-rule="nonzero"/>
	<rect id="Facebook" rx="6.000000" width="25.000000" height="25.000000" transform="translate(0.500000 0.500000)" stroke="#044AB2" stroke-opacity="1.000000" stroke-width="1.000000"/>
</svg>
