<svg width="26.000000" height="26.000000" viewBox="0 0 26 26" fill="none" xmlns="http://www.w3.org/2000/svg" xmlns:xlink="http://www.w3.org/1999/xlink">
	<desc>
			Created with Pixso.
	</desc>
	<defs/>
	<rect id="Social Media Icon" x="1.000000" y="1.000000" rx="4.000000" width="24.000000" height="24.000000" fill="#FFFFFF" fill-opacity="1.000000"/>
	<path id="Instagram" d="M7 12.9999C7 10.6031 7 9.40472 7.57129 8.54156C7.82617 8.15613 8.15625 7.82605 8.5415 7.57098C9.40479 6.99988 10.603 6.99988 13 6.99988C15.397 6.99988 16.5952 6.99988 17.4585 7.57098C17.8438 7.82605 18.1738 8.15613 18.4287 8.54156C19 9.40472 19 10.6031 19 12.9999C19 15.3967 19 16.595 18.4287 17.4582C18.1738 17.8436 17.8438 18.1737 17.4585 18.4288C16.5952 18.9999 15.397 18.9999 13 18.9999C10.603 18.9999 9.40479 18.9999 8.5415 18.4288C8.15625 18.1737 7.82617 17.8436 7.57129 17.4582C7 16.595 7 15.3967 7 12.9999ZM16.229 9.00781C15.8257 9.00781 15.499 9.33459 15.499 9.73773C15.499 10.1408 15.8257 10.4676 16.229 10.4676C16.6318 10.4676 16.959 10.1408 16.959 9.73773C16.959 9.33459 16.6318 9.00781 16.229 9.00781ZM16.1064 13C16.1064 14.7156 14.7153 16.1063 13 16.1063C11.2847 16.1063 9.89355 14.7156 9.89355 13C9.89355 11.2845 11.2847 9.89374 13 9.89374C14.7153 9.89374 16.1064 11.2845 16.1064 13ZM13 15.0554C14.1353 15.0554 15.0552 14.1351 15.0552 13C15.0552 11.8649 14.1353 10.9447 13 10.9447C11.8647 10.9447 10.9448 11.8649 10.9448 13C10.9448 14.1351 11.8647 15.0554 13 15.0554Z" clip-rule="evenodd" fill="#044AB2" fill-opacity="1.000000" fill-rule="evenodd"/>
	<rect id="Instagram" rx="6.000000" width="25.000000" height="25.000000" transform="translate(0.500000 0.500000)" stroke="#044AB2" stroke-opacity="1.000000" stroke-width="1.000000"/>
</svg>
