<svg width="24" height="24" viewBox="0 0 24 24" fill="none" xmlns="http://www.w3.org/2000/svg">
<g id="eikon-general-solid_phone 1">
<path id="Vector" d="M6.21499 0.435001C6.36434 0.320649 6.535 0.237224 6.71697 0.189603C6.89895 0.141983 7.08859 0.131124 7.27482 0.15766C7.46104 0.184197 7.6401 0.247597 7.80153 0.344153C7.96296 0.440709 8.10352 0.568482 8.21499 0.720001L10.5 3.8C10.7016 4.07137 10.7998 4.40577 10.7768 4.74306C10.7539 5.08034 10.6114 5.39839 10.375 5.64L8.29999 7.75C8.11687 7.93689 7.98874 8.17059 7.92965 8.42548C7.87056 8.68036 7.88279 8.9466 7.96499 9.195C8.96124 12.289 10.9575 14.9642 13.64 16.8C13.8577 16.9514 14.1132 17.0395 14.378 17.0545C14.6428 17.0695 14.9065 17.0108 15.14 16.885L17.74 15.5C18.0367 15.3427 18.3797 15.2961 18.7076 15.3685C19.0355 15.4408 19.327 15.6275 19.53 15.895L21.845 18.945C21.9603 19.0938 22.0446 19.2641 22.093 19.446C22.1414 19.6279 22.1528 19.8177 22.1268 20.004C22.1007 20.1904 22.0375 20.3697 21.941 20.5313C21.8445 20.6929 21.7167 20.8336 21.565 20.945L18.64 23.125C18.4886 23.2404 18.3148 23.3231 18.1298 23.3679C17.9447 23.4126 17.7524 23.4184 17.565 23.385C13.0448 22.5758 9.00172 20.0773 6.25601 16.3966C3.51029 12.7158 2.26758 8.12838 2.77999 3.565C2.80346 3.37666 2.86471 3.19499 2.96008 3.03089C3.05545 2.86679 3.18296 2.72364 3.33499 2.61L6.21499 0.435001Z" fill="#010101"/>
</g>
</svg>
