<svg width="24" height="24" viewBox="0 0 24 24" fill="none" xmlns="http://www.w3.org/2000/svg">
<g id="pin">
<g id="Group">
<path id="Vector" d="M12 2.625C8.48475 2.625 5.625 5.48475 5.625 9C5.625 12.3919 11.4439 20.8545 11.6914 21.213C11.7615 21.3146 11.8766 21.375 12 21.375C12.1234 21.375 12.2385 21.3146 12.3086 21.213C12.5561 20.8545 18.375 12.3919 18.375 9C18.375 5.48475 15.5153 2.625 12 2.625ZM12 20.331C10.7812 18.51 6.375 11.7371 6.375 9C6.375 5.89838 8.89838 3.375 12 3.375C15.1016 3.375 17.625 5.89838 17.625 9C17.625 11.7364 13.2188 18.51 12 20.331Z" fill="#C8C8C8"/>
<path id="Vector_2" d="M12 7.125C10.9661 7.125 10.125 7.96613 10.125 9C10.125 10.0339 10.9661 10.875 12 10.875C13.0339 10.875 13.875 10.0339 13.875 9C13.875 7.96613 13.0339 7.125 12 7.125ZM12 10.125C11.3798 10.125 10.875 9.62025 10.875 9C10.875 8.37975 11.3798 7.875 12 7.875C12.6202 7.875 13.125 8.37975 13.125 9C13.125 9.62025 12.6202 10.125 12 10.125Z" fill="#C8C8C8"/>
</g>
</g>
</svg>
