<svg width="19" height="16" viewBox="0 0 19 16" fill="none" xmlns="http://www.w3.org/2000/svg">
<g id="Shape">
<path id="Union" fill-rule="evenodd" clip-rule="evenodd" d="M3.66522 -0.000976562C3.40016 -0.000976562 3.15478 0.138935 3.01979 0.367044L0.102616 5.29625C-0.0629831 5.57606 -0.0294223 5.93071 0.185726 6.1745L8.45104 15.54C8.45852 15.5485 8.4662 15.5568 8.47406 15.5649C8.60676 15.7022 8.76572 15.8119 8.94193 15.887C9.11816 15.962 9.30777 16.0008 9.49956 16.0008C9.69136 16.0008 9.88097 15.962 10.0572 15.887C10.2334 15.8119 10.3924 15.7022 10.5251 15.5649C10.5329 15.5568 10.5406 15.5485 10.5481 15.54L18.8134 6.1745C19.0285 5.93071 19.0621 5.57606 18.8965 5.29625L15.9793 0.367044C15.8443 0.138935 15.599 -0.000976562 15.3339 -0.000976562H3.66522ZM1.67126 5.59086L4.09286 1.49902H14.9063L17.3279 5.59087L9.49956 14.4612L1.67126 5.59086ZM6.83887 4.87792C7.04983 4.52145 6.93187 4.06146 6.57541 3.8505C6.21894 3.63953 5.75895 3.75749 5.54799 4.11396L4.96455 5.0998C4.79784 5.38149 4.83308 5.73877 5.0516 5.98248L6.99638 8.15133C7.27291 8.45972 7.74708 8.48555 8.05547 8.20902C8.36386 7.93249 8.38969 7.45832 8.11316 7.14993L6.53551 5.3905L6.83887 4.87792Z" fill="#21151F"/>
</g>
</svg>
