<svg width="24" height="24" viewBox="0 0 24 24" fill="none" xmlns="http://www.w3.org/2000/svg">
<path d="M12 0C9.62663 0 7.30655 0.703788 5.33316 2.02236C3.35977 3.34094 1.8217 5.21508 0.913451 7.4078C0.0051994 9.60051 -0.232441 12.0133 0.230582 14.3411C0.693605 16.6689 1.83649 18.807 3.51472 20.4853C5.19295 22.1635 7.33115 23.3064 9.65892 23.7694C11.9867 24.2324 14.3995 23.9948 16.5922 23.0865C18.7849 22.1783 20.6591 20.6402 21.9776 18.6668C23.2962 16.6934 24 14.3734 24 12C24 8.8174 22.7357 5.76515 20.4853 3.51472C18.2348 1.26428 15.1826 0 12 0ZM12 22.2857C9.96568 22.2857 7.97704 21.6825 6.28557 20.5523C4.59409 19.422 3.27575 17.8156 2.49724 15.9362C1.71874 14.0567 1.51505 11.9886 1.91193 9.99335C2.3088 7.99812 3.28842 6.16538 4.72691 4.7269C6.16539 3.28842 7.99813 2.3088 9.99336 1.91192C11.9886 1.51505 14.0567 1.71874 15.9362 2.49724C17.8156 3.27574 19.4221 4.59409 20.5523 6.28556C21.6825 7.97704 22.2857 9.96568 22.2857 12C22.2857 14.7279 21.202 17.3441 19.2731 19.2731C17.3442 21.202 14.7279 22.2857 12 22.2857Z" fill="#21151F"/>
<path d="M18.2486 7.10572L10.2857 15.0771L5.75145 10.5343C5.59004 10.3729 5.37113 10.2822 5.14288 10.2822C4.91462 10.2822 4.69571 10.3729 4.53431 10.5343C4.3729 10.6957 4.28223 10.9146 4.28223 11.1429C4.28223 11.2559 4.30449 11.3678 4.34774 11.4722C4.39099 11.5766 4.45439 11.6715 4.53431 11.7514L9.67716 16.8943C9.75684 16.9746 9.85164 17.0384 9.9561 17.0819C10.0605 17.1254 10.1726 17.1478 10.2857 17.1478C10.3989 17.1478 10.5109 17.1254 10.6154 17.0819C10.7198 17.0384 10.8146 16.9746 10.8943 16.8943L19.4657 8.32286C19.5456 8.24294 19.609 8.14806 19.6523 8.04364C19.6955 7.93923 19.7178 7.82731 19.7178 7.71429C19.7178 7.60127 19.6955 7.48935 19.6523 7.38493C19.609 7.28051 19.5456 7.18563 19.4657 7.10572C19.3858 7.0258 19.2909 6.9624 19.1865 6.91915C19.0821 6.8759 18.9702 6.85364 18.8572 6.85364C18.7441 6.85364 18.6322 6.8759 18.5278 6.91915C18.4234 6.9624 18.3285 7.0258 18.2486 7.10572Z" fill="#21151F"/>
</svg>
